<?xml version="1.0" standalone="no"?>
<!DOCTYPE svg PUBLIC "-//W3C//DTD SVG 20010904//EN"
 "http://www.w3.org/TR/2001/REC-SVG-20010904/DTD/svg10.dtd">
<svg version="1.0" xmlns="http://www.w3.org/2000/svg"
 width="521.000000pt" height="521.000000pt" viewBox="0 0 521.000000 521.000000"
 preserveAspectRatio="xMidYMid meet">

<g transform="translate(0.000000,521.000000) scale(0.100000,-0.100000)"
fill="#000000" stroke="none">
<path d="M660 5171 c-273 -58 -493 -259 -588 -536 l-27 -80 -3 -2270 -2 -2270
2247 5 2248 5 70 23 c290 98 498 335 545 624 6 42 10 820 10 2291 l0 2227
-2207 -1 c-2086 0 -2213 -1 -2293 -18z m1800 -1246 l0 -1224 -927 -4 c-1030
-3 -962 1 -1108 -71 -138 -69 -243 -174 -310 -311 l-35 -70 0 1126 c0 1114 0
1126 21 1210 72 283 295 497 579 554 50 10 258 13 923 14 l857 1 0 -1225z
m2658 173 l-3 -1053 -24 -65 c-68 -182 -186 -317 -344 -395 -140 -68 -93 -65
-1119 -65 l-928 0 0 -1230 0 -1230 -1307 2 -1308 3 0 1020 c0 1141 -4 1071 72
1225 52 103 169 221 273 273 151 76 78 71 1128 74 l942 4 0 1238 c0 681 3
1241 7 1244 3 4 593 7 1310 7 l1304 0 -3 -1052z m-1 -2473 c-3 -964 -3 -970
-24 -1034 -89 -262 -284 -448 -537 -511 -76 -19 -114 -20 -948 -20 l-868 0 0
1210 0 1210 913 0 c1014 1 969 -2 1112 69 132 67 251 183 316 310 l34 66 3
-165 c1 -91 1 -601 -1 -1135z"/>
<path d="M1219 4675 c-145 -29 -269 -96 -379 -205 -172 -169 -259 -406 -247
-670 7 -147 23 -214 80 -330 33 -68 59 -103 127 -171 47 -47 111 -100 142
-118 238 -134 553 -129 787 11 77 45 194 156 241 228 31 46 40 100 17 100 -7
0 -49 -38 -95 -85 -69 -70 -98 -92 -175 -130 -125 -61 -200 -79 -310 -72 -78
4 -98 9 -171 46 -144 70 -260 204 -322 367 -38 101 -54 201 -54 334 0 190 37
322 126 446 52 73 101 115 181 151 82 38 222 44 320 14 181 -55 348 -216 444
-427 31 -67 38 -74 60 -48 10 13 11 28 0 87 -7 40 -15 135 -17 212 -3 77 -7
150 -10 163 -6 30 -39 29 -60 -3 -27 -41 -48 -40 -132 8 -42 24 -97 51 -122
60 -124 46 -298 59 -431 32z"/>
<path d="M2727 3823 l3 -1108 872 0 c709 0 881 3 913 14 185 62 312 187 376
371 l23 65 4 883 3 882 -1098 0 -1098 0 2 -1107z m1883 750 c19 -27 58 -63 86
-81 l51 -33 6 -347 6 -347 -171 -226 c-186 -248 -175 -238 -283 -239 -100 -1
-106 -4 -160 -101 l-50 -89 -176 0 -177 0 -6 -24 c-8 -34 -25 -37 -85 -15 -58
20 -49 22 -135 -28 -56 -33 -91 -8 -145 102 l-39 80 28 30 c36 39 51 70 44 89
-3 9 -7 17 -8 17 0 1 -133 7 -294 14 -161 6 -295 15 -299 19 -4 3 -1 12 5 18
17 17 15 53 -4 69 -29 24 -35 57 -18 92 33 64 83 113 165 161 183 107 195 118
191 179 -1 15 0 27 2 27 2 0 28 -16 57 -36 58 -39 150 -84 174 -84 45 0 59 84
30 190 -8 30 -15 57 -15 59 0 4 38 -5 122 -30 l67 -21 6 -56 c8 -76 13 -85 84
-168 60 -70 63 -72 132 -88 167 -38 291 -12 333 69 27 52 29 184 4 231 -16 30
-20 31 -100 37 -134 9 -188 40 -188 107 0 43 -16 67 -49 72 -19 2 -27 15 -47
77 -13 40 -24 81 -24 90 0 31 53 163 68 169 26 10 135 -19 189 -49 59 -34 93
-71 93 -103 1 -11 19 26 41 83 21 58 42 107 45 110 3 3 83 9 177 12 95 3 186
6 202 7 25 2 36 -6 65 -45z"/>
<path d="M4353 4581 c-89 -4 -164 -9 -167 -12 -3 -3 -17 -37 -31 -75 -48 -135
-63 -169 -78 -172 -16 -3 -27 26 -27 75 0 27 -8 37 -45 63 -63 43 -107 60
-157 60 l-43 0 -23 -58 c-27 -71 -27 -73 -2 -148 18 -52 25 -61 53 -70 29 -8
33 -14 44 -68 6 -32 15 -62 21 -68 17 -17 116 -38 180 -38 l63 0 22 -47 c32
-72 35 -176 7 -242 -24 -55 -78 -101 -134 -115 -50 -12 -159 -8 -237 10 -81
18 -108 37 -181 131 -22 29 -43 51 -47 48 -4 -2 -8 17 -9 43 -4 89 -9 99 -56
111 -24 6 -51 13 -59 17 -14 5 -15 1 -7 -28 17 -56 12 -153 -7 -177 -33 -39
-101 -32 -186 19 -36 22 -68 40 -70 40 -3 0 -8 -11 -11 -25 -7 -29 -67 -75
-177 -135 -89 -49 -140 -94 -169 -149 l-18 -37 29 -39 c18 -23 27 -46 24 -57
-8 -24 4 -26 278 -33 132 -3 250 -10 263 -15 36 -14 50 -52 33 -92 -7 -18 -24
-43 -36 -54 l-23 -21 26 -59 c28 -64 59 -104 81 -104 8 0 35 14 60 32 44 30
48 31 87 19 85 -25 84 -26 88 5 l3 29 181 -4 180 -3 51 88 c56 99 59 101 168
103 33 1 70 4 82 7 19 5 113 112 113 129 0 3 7 14 16 22 9 9 34 41 57 72 23
31 44 58 47 61 3 3 32 40 64 82 l58 77 -6 203 c-4 112 -9 262 -12 334 -6 130
-6 131 -34 147 -35 21 -98 86 -106 109 -3 12 -14 17 -32 16 -15 -1 -100 -4
-189 -7z"/>
<path d="M715 2450 c-107 -22 -231 -94 -304 -176 -60 -69 -119 -194 -131 -279
-6 -41 -10 -415 -10 -902 l0 -833 1125 0 1125 0 0 1100 0 1100 -882 -1 c-486
-1 -901 -5 -923 -9z m985 -520 l0 -230 240 0 239 0 3 -310 3 -310 -242 0 -243
0 0 -245 0 -245 -310 0 -310 0 -2 243 -3 242 -240 3 -240 2 2 308 3 307 240 3
240 2 0 230 0 230 310 0 310 0 0 -230z"/>
<path d="M1110 1923 c0 -115 -3 -218 -6 -230 l-6 -23 -237 0 -236 0 2 -272 c1
-150 3 -276 3 -280 0 -4 107 -9 238 -10 181 -2 237 -6 238 -15 1 -7 2 -116 3
-243 l1 -230 280 0 280 0 2 243 3 242 238 3 237 2 0 270 c0 149 1 273 3 278 1
4 -107 8 -240 10 l-243 2 0 230 0 230 -280 0 -280 0 0 -207z"/>
<path d="M4640 2039 c-30 -5 -148 -7 -261 -4 -211 7 -236 3 -209 -30 7 -8 28
-18 49 -21 56 -11 96 -31 130 -64 54 -54 54 -143 2 -298 -30 -89 -333 -774
-353 -800 -24 -28 -19 -39 -231 488 -192 474 -219 579 -162 636 13 13 38 27
55 30 16 4 35 13 41 21 28 33 -4 37 -317 39 -254 1 -306 -1 -311 -12 -8 -22
11 -38 61 -53 51 -15 102 -64 137 -133 12 -24 68 -158 124 -298 56 -140 175
-421 265 -625 89 -203 170 -389 181 -413 33 -77 61 -68 114 37 50 101 316 688
427 946 178 412 212 468 300 497 35 12 43 19 43 39 0 28 -10 30 -85 18z"/>
</g>
</svg>
