<svg xmlns="http://www.w3.org/2000/svg" width="521" height="521" viewBox="0 0 521 521" version="1.1"><path d="M -0 260.502 L -0 521.004 260.750 520.752 L 521.500 520.500 521.752 260.250 L 522.004 -0 261.002 -0 L 0 0 -0 260.502 M 0.492 261 C 0.492 404.275, 0.608 462.887, 0.750 391.250 C 0.892 319.612, 0.892 202.387, 0.750 130.750 C 0.608 59.112, 0.492 117.725, 0.492 261 M 66.500 3.485 C 36.273 10.168, 13.561 31.936, 6.009 61.464 C 4.026 69.218, 4 72.248, 4 294.660 L 4 520 221.928 520 C 371.729 520, 442.301 519.664, 447.678 518.926 C 465.800 516.437, 479.762 509.416, 493.088 496.088 C 502.897 486.278, 507.820 478.467, 512.336 465.549 L 515.500 456.500 516 229.250 L 516.500 2 294.500 2.079 C 113.990 2.144, 71.379 2.407, 66.500 3.485 M 73.810 7.043 C 40.452 10.933, 14.358 36.297, 9.041 70 C 8.385 74.155, 8.020 116.002, 8.030 186 C 8.044 294.936, 8.054 295.478, 9.971 291.254 C 17.322 275.061, 34.022 260.136, 51.369 254.256 L 59.500 251.500 152.750 251.225 L 246 250.950 246 128.475 L 246 6 163.250 6.131 C 117.737 6.204, 77.490 6.614, 73.810 7.043 M 250.754 131.250 L 250.500 255.500 154.500 256 C 63.920 256.472, 58.218 256.605, 53.500 258.368 C 31.315 266.654, 16.940 281.809, 11.028 303.141 C 9.052 310.274, 9 313.060, 9 412.734 L 9 515.007 139.250 514.754 L 269.500 514.500 269.754 391.750 L 270.008 269 361.844 269 C 449.972 269, 453.991 268.920, 461.391 267.028 C 484.393 261.145, 503.650 242.175, 509.630 219.508 C 510.680 215.529, 510.960 193.559, 511.001 112.003 C 511.029 55.626, 511.041 8.938, 511.026 8.250 C 511.005 7.257, 484.320 7, 381.004 7 L 251.008 7 250.754 131.250 M 272.246 138.750 L 272.500 250.500 359 250.500 C 455.157 250.500, 448.007 250.968, 462.500 243.722 C 470.711 239.616, 481.624 228.458, 485.752 219.947 C 492.110 206.841, 491.969 209.245, 491.985 113.750 L 492 27 381.996 27 L 271.991 27 272.246 138.750 M 120.364 53.493 C 90.478 59.993, 67.287 85.219, 60.347 118.777 C 58.063 129.822, 58.911 151.875, 61.990 161.500 C 70.043 186.674, 86.791 203.083, 111.709 210.213 C 122.938 213.426, 143.133 213.405, 154.455 210.168 C 164.380 207.330, 173.691 202.487, 181.740 195.975 C 191.868 187.779, 202.004 174.059, 200.612 170.430 C 199.563 167.697, 197.217 169.043, 189.879 176.585 C 177.574 189.233, 162.432 196.575, 146.500 197.618 C 131.345 198.610, 119.079 193.113, 106.354 179.627 C 100.723 173.660, 97.867 169.545, 94.552 162.627 C 87.890 148.725, 86.580 142.303, 86.573 123.500 C 86.566 105.032, 87.746 99.120, 93.983 86.392 C 99.015 76.124, 108.776 66.428, 117.655 62.878 C 125.769 59.634, 142.681 59.557, 151.254 62.725 C 168.214 68.992, 186.467 87.825, 193.486 106.299 C 194.952 110.158, 195.720 111.040, 197.405 110.799 C 199.262 110.534, 199.484 109.876, 199.359 105 C 198.983 90.367, 196.693 62.360, 195.781 61.250 C 194.155 59.270, 192.546 59.770, 190.158 63 C 188.938 64.650, 187.104 66, 186.082 66 C 185.059 66, 179.335 63.540, 173.362 60.533 C 166.145 56.901, 159.913 54.552, 154.792 53.533 C 145.493 51.683, 128.776 51.664, 120.364 53.493 M 425.043 60.936 L 416.586 61.500 412.440 72.354 C 408.583 82.452, 407.078 84.051, 406.969 78.168 C 406.952 77.251, 404.951 75.003, 402.523 73.174 C 396.458 68.607, 388.757 65.834, 383.154 66.201 L 378.588 66.500 375.719 74 L 372.850 81.500 375.294 89.451 C 377.546 96.775, 378.005 97.491, 381.119 98.534 C 383.978 99.491, 384.544 100.193, 384.786 103.083 C 385.566 112.406, 388.741 114.691, 403.081 116.250 L 412.910 117.318 414.565 121.409 C 416.864 127.095, 416.729 136.575, 414.270 142.073 C 411.750 147.709, 409.761 149.410, 403.196 151.542 C 397.280 153.464, 389.242 153.085, 378.447 150.375 C 372.752 148.946, 371.998 148.389, 365.730 140.981 C 359.354 133.446, 359.037 132.821, 358.391 126.512 C 357.923 121.946, 357.221 119.673, 356.108 119.122 C 353.591 117.875, 340.963 114.704, 340.472 115.195 C 340.230 115.437, 340.731 118.980, 341.586 123.068 C 343.153 130.560, 342.927 135.178, 340.872 137.655 C 338.385 140.650, 330.959 138.397, 320.849 131.579 L 315.500 127.972 314.904 131.508 C 314.078 136.407, 311.337 138.958, 300.821 144.613 C 290.355 150.241, 282.747 156.615, 279.950 162.098 C 277.406 167.085, 277.487 168.461, 280.563 172.494 C 283.023 175.719, 283.062 175.979, 281.538 178.927 L 279.949 182 285.724 182.092 C 322.177 182.672, 338.004 183.575, 339.594 185.165 C 341.831 187.403, 340.765 191.389, 336.892 195.262 L 333.887 198.267 337.121 205.626 C 338.899 209.673, 341.347 213.917, 342.559 215.056 C 345.622 217.933, 349.949 217.786, 354.568 214.648 C 358.940 211.677, 361.348 211.412, 365 213.500 C 369.199 215.900, 372.027 215.390, 373.306 212 L 374.438 209 392.013 209 L 409.589 209 414.578 200.250 L 419.567 191.500 430.428 190.500 L 441.289 189.500 458.083 167.500 L 474.876 145.500 474.935 128.500 C 475.034 100.192, 473.856 74, 472.486 74 C 470.241 74, 462.457 67.264, 460.498 63.626 L 458.545 60 446.023 60.186 C 439.135 60.289, 429.694 60.626, 425.043 60.936 M 427.885 62.744 L 418.269 63.069 413.507 75.535 C 410.887 82.391, 408.184 88, 407.501 88 C 406.766 88, 405.990 85.981, 405.603 83.067 C 405.093 79.222, 404.264 77.559, 401.841 75.520 C 396.989 71.437, 391.215 68.878, 385.534 68.291 L 380.323 67.754 377.739 74.725 L 375.155 81.696 377.327 88.838 C 378.780 93.614, 380.006 95.983, 381.027 95.990 C 384.146 96.011, 387 99.022, 387.014 102.307 C 387.049 110.476, 390.040 112.706, 402.760 114.045 C 407.567 114.551, 412.088 114.972, 412.806 114.982 C 414.421 115.004, 417.568 122.060, 418.481 127.705 C 419.351 133.085, 417.518 141.935, 414.653 146.188 C 409.135 154.381, 396.994 156.864, 380.787 153.116 L 371.500 150.968 364.286 142.567 C 357.332 134.467, 357.049 133.934, 356.411 127.703 L 355.748 121.240 349.868 119.460 C 346.633 118.481, 343.766 117.900, 343.496 118.170 C 343.226 118.440, 343.496 121.316, 344.096 124.562 C 347.339 142.106, 339.261 145.623, 321.250 134.509 C 318.012 132.511, 317 132.239, 317 133.367 C 317 136.435, 311.603 141.040, 301.067 146.962 C 289.839 153.273, 283.504 158.916, 281.099 164.748 C 279.851 167.774, 279.944 168.238, 282.474 171.555 C 284.430 174.119, 285.017 175.796, 284.575 177.557 C 283.979 179.930, 284.127 180.002, 289.731 180.083 C 292.904 180.128, 305.244 180.469, 317.153 180.841 C 336.446 181.442, 339.036 181.722, 340.903 183.413 C 343.846 186.076, 343.513 189.991, 339.923 194.947 L 336.847 199.194 339.050 204.624 C 343.407 215.358, 346.862 217.205, 353.785 212.500 C 358.103 209.566, 361.572 209.352, 366.525 211.713 C 369.647 213.202, 370.240 213.235, 371.044 211.963 C 371.553 211.159, 371.976 209.713, 371.985 208.750 C 371.999 207.148, 373.542 207, 390.252 207 L 408.503 207 410.966 202.357 C 412.321 199.804, 414.637 195.811, 416.112 193.484 L 418.796 189.253 429.352 188.533 L 439.908 187.814 456.454 165.972 L 473 144.129 472.998 133.315 C 472.996 127.367, 472.700 112.038, 472.338 99.251 L 471.681 76.003 467.395 73.492 C 465.038 72.110, 461.659 68.960, 459.885 66.490 L 456.661 62 447.080 62.209 C 441.811 62.324, 433.173 62.565, 427.885 62.744 M 508.154 235.669 C 500.891 249.059, 489.489 260.180, 476.500 266.541 C 461.653 273.813, 467.714 273.418, 365.750 273.761 L 274 274.069 274 394.535 L 274 515 359.542 515 C 454.476 515, 453.484 515.060, 467.840 508.434 C 485.741 500.173, 498.660 486.976, 505.920 469.538 C 512.072 454.759, 512.041 455.474, 511.757 337 L 511.500 229.500 508.154 235.669 M 76.173 275.075 C 68.422 276.080, 64.269 277.390, 56.500 281.277 C 48.829 285.115, 37.504 296.469, 33.245 304.593 C 26.920 316.656, 27.031 314.792, 27.015 409.250 L 27 495 139.500 495 L 252 495 252 384.500 L 252 274 167.250 274.127 C 120.637 274.197, 79.653 274.623, 76.173 275.075 M 108 329 L 108 352 84 352 L 60 352 60 382.500 L 60 413 84 413 L 108 413 108 437.500 L 108 462 139 462 L 170 462 170 437.500 L 170 413 194 413 L 218 413 218 382.500 L 218 352 194 352 L 170 352 170 329 L 170 306 139 306 L 108 306 108 329 M 110 331 L 110 354 86 354 L 62 354 62 382.500 L 62 411 85.982 411 L 109.964 411 110.232 435.250 L 110.500 459.500 139.250 459.765 L 168 460.031 168 435.515 L 168 411 192 411 L 216 411 216 382.500 L 216 354 192 354 L 168 354 168 331 L 168 308 139 308 L 110 308 110 331 M 307.343 317.548 C 306.323 320.208, 308.094 322.072, 313.591 324.122 C 322.322 327.379, 325.198 331.732, 334.979 356.500 C 343.624 378.394, 346.872 386.097, 364.703 427 C 386.488 476.974, 386.023 476, 388.077 476 C 391.722 476, 393.711 472.449, 408.515 439.500 C 411.974 431.800, 418.483 417.400, 422.980 407.500 C 427.476 397.600, 435.219 380.050, 440.185 368.500 C 455.750 332.304, 460.021 325.512, 469.137 322.460 C 471.730 321.592, 472.575 320.694, 472.828 318.542 L 473.157 315.750 467.328 316.625 C 464.123 317.106, 451.375 317.500, 439 317.500 C 417.264 317.500, 416.500 317.567, 416.500 319.474 C 416.500 321.059, 417.756 321.777, 422.861 323.112 C 430.064 324.995, 433.458 327.174, 436.851 332.092 C 438.923 335.095, 439.139 336.295, 438.665 342.183 C 438.370 345.858, 436.564 353.508, 434.654 359.183 C 431.314 369.101, 401.125 437.275, 399.235 439.165 C 398.675 439.725, 397.895 439.579, 397.242 438.792 C 395.559 436.763, 365.387 361.906, 361.917 351.148 C 356.119 333.176, 356.884 326.186, 364.881 324.032 C 369.198 322.870, 371.498 320.741, 370.696 318.651 C 370.268 317.534, 365.104 317.268, 343.095 317.228 C 328.204 317.201, 314.217 316.875, 312.013 316.502 C 308.745 315.950, 307.882 316.143, 307.343 317.548" stroke="none" fill="#ffffff" fill-rule="evenodd"/><path d="M 72.500 2.600 C 71.400 2.841, 67.912 3.541, 64.750 4.156 C 61.587 4.770, 59 5.648, 59 6.105 C 59 6.563, 58.383 6.700, 57.629 6.411 C 56.875 6.122, 55.578 6.564, 54.748 7.395 C 53.918 8.225, 53.003 8.670, 52.716 8.383 C 51.965 7.631, 43.653 11.998, 42.689 13.651 C 42.242 14.416, 41.455 14.781, 40.939 14.462 C 40.422 14.143, 40 14.359, 40 14.941 C 40 15.523, 39.357 16, 38.571 16 C 37.785 16, 35.535 17.516, 33.571 19.368 C 31.607 21.221, 30 22.492, 30 22.194 C 30 21.895, 28.875 22.708, 27.500 24 C 26.125 25.292, 25 26.683, 25 27.093 C 25 27.502, 23.198 29.713, 20.995 32.005 C 18.792 34.298, 17.243 36.585, 17.554 37.087 C 17.864 37.589, 17.647 38, 17.072 38 C 14.793 38, 6.613 57.177, 5.230 65.760 C 4.898 67.817, 4.523 124.175, 4.396 191 C 4.200 294.402, 4.365 311.582, 5.502 306.338 C 6.237 302.949, 7.611 298.998, 8.555 297.557 C 9.499 296.116, 9.985 294.652, 9.635 294.302 C 9.286 293.953, 8.993 294.304, 8.985 295.083 C 8.972 296.274, 8.822 296.267, 8.045 295.038 C 7.495 294.168, 7.090 250.029, 7.047 186.038 C 6.985 96.254, 7.211 77.264, 8.416 71.012 C 9.209 66.894, 9.669 63.336, 9.438 63.104 C 9.207 62.873, 9.405 62.193, 9.878 61.592 C 10.352 60.991, 11.310 58.700, 12.007 56.500 C 13.898 50.535, 18.409 41.928, 22.352 36.761 C 24.275 34.242, 25.630 31.964, 25.364 31.698 C 25.098 31.431, 26.775 29.703, 29.091 27.857 C 31.407 26.011, 34.564 23.317, 36.106 21.872 C 37.648 20.426, 39.085 19.418, 39.298 19.632 C 39.512 19.845, 40.821 19.003, 42.208 17.760 C 43.595 16.517, 45.353 15.354, 46.115 15.175 C 46.877 14.996, 47.651 14.431, 47.835 13.919 C 48.020 13.407, 48.546 13.219, 49.005 13.503 C 49.463 13.786, 50.534 13.323, 51.384 12.473 C 52.233 11.624, 53.170 10.945, 53.464 10.964 C 53.759 10.984, 54.112 10.967, 54.250 10.926 C 54.388 10.885, 55.605 10.648, 56.957 10.400 C 58.308 10.152, 59.694 9.496, 60.037 8.941 C 60.379 8.386, 61.485 8.249, 62.494 8.636 C 63.642 9.077, 64.091 8.956, 63.695 8.315 C 63.331 7.726, 64.218 7.198, 65.781 7.073 C 67.276 6.954, 108.416 6.648, 157.201 6.392 L 245.903 5.928 246.215 12.214 L 246.527 18.500 247.013 10.748 L 247.500 2.995 163.875 2.998 C 117.881 2.999, 78.956 2.811, 77.375 2.581 C 75.794 2.350, 73.600 2.359, 72.500 2.600 M 512.481 108 C 512.481 162.175, 512.602 184.337, 512.750 157.250 C 512.898 130.162, 512.898 85.837, 512.750 58.750 C 512.602 31.662, 512.481 53.825, 512.481 108 M 246.483 135 C 246.483 197.425, 246.603 222.963, 246.750 191.750 C 246.897 160.538, 246.897 109.463, 246.750 78.250 C 246.603 47.038, 246.483 72.575, 246.483 135 M 129.250 52.689 C 130.213 52.941, 131.787 52.941, 132.750 52.689 C 133.713 52.438, 132.925 52.232, 131 52.232 C 129.075 52.232, 128.287 52.438, 129.250 52.689 M 143.250 52.689 C 144.213 52.941, 145.787 52.941, 146.750 52.689 C 147.713 52.438, 146.925 52.232, 145 52.232 C 143.075 52.232, 142.287 52.438, 143.250 52.689 M 132.750 59.706 C 133.988 59.944, 136.012 59.944, 137.250 59.706 C 138.488 59.467, 137.475 59.272, 135 59.272 C 132.525 59.272, 131.512 59.467, 132.750 59.706 M 175.500 79 C 178.209 81.750, 180.650 84, 180.925 84 C 181.200 84, 179.209 81.750, 176.500 79 C 173.791 76.250, 171.350 74, 171.075 74 C 170.800 74, 172.791 76.250, 175.500 79 M 199.252 105.500 C 199.263 107.700, 199.468 108.482, 199.707 107.238 C 199.946 105.994, 199.937 104.194, 199.687 103.238 C 199.437 102.282, 199.241 103.300, 199.252 105.500 M 189.437 177.250 L 186.500 180.500 189.750 177.563 C 192.779 174.825, 193.460 174, 192.687 174 C 192.515 174, 191.052 175.463, 189.437 177.250 M 140.750 198.706 C 141.988 198.944, 144.012 198.944, 145.250 198.706 C 146.488 198.467, 145.475 198.272, 143 198.272 C 140.525 198.272, 139.512 198.467, 140.750 198.706 M 136.250 212.689 C 137.213 212.941, 138.787 212.941, 139.750 212.689 C 140.713 212.438, 139.925 212.232, 138 212.232 C 136.075 212.232, 135.287 212.438, 136.250 212.689 M 513.216 221.603 C 512.277 225.321, 511.920 253.944, 511.731 340.500 C 511.485 453.273, 511.460 454.573, 509.375 461.250 C 508.217 464.962, 507.546 468.007, 507.884 468.015 C 508.223 468.024, 507.988 468.361, 507.362 468.765 C 506.279 469.465, 503.389 475.511, 503.241 477.388 C 503.202 477.877, 502.781 478.552, 502.304 478.888 C 501.827 479.225, 500.042 481.428, 498.338 483.784 C 494.649 488.884, 484.187 500, 483.075 500 C 482.644 500, 481.200 501.012, 479.864 502.250 C 478.529 503.488, 477.128 504.500, 476.751 504.500 C 476.373 504.500, 475.038 505.379, 473.782 506.454 C 472.527 507.529, 471.378 508.291, 471.229 508.147 C 470.650 507.587, 464 510.451, 464 511.260 C 464 511.732, 463.663 511.914, 463.250 511.665 C 462.837 511.415, 459.176 512.059, 455.113 513.095 C 448.160 514.869, 442.588 514.981, 360.264 515.011 C 283.501 515.039, 272.872 515.224, 273.370 516.521 C 273.828 517.714, 272.735 518.047, 267.719 518.242 C 264.298 518.375, 300.641 518.712, 348.480 518.992 C 396.319 519.271, 438.844 519.197, 442.980 518.826 C 452.663 517.959, 457.997 517.122, 459.389 516.251 C 460 515.869, 461.036 515.475, 461.690 515.375 C 464.530 514.944, 470 512.781, 470 512.089 C 470 511.673, 470.642 511.333, 471.426 511.333 C 474.050 511.333, 484.163 504.566, 491.118 498.156 C 497.421 492.346, 506.622 480.220, 506.063 478.459 C 505.934 478.055, 506.267 477.448, 506.802 477.112 C 508.172 476.251, 512.951 464.598, 513.321 461.218 C 513.490 459.674, 514.050 457.755, 514.564 456.955 C 515.734 455.136, 516.415 226.101, 515.267 220.603 L 514.453 216.706 513.216 221.603 M 498.205 243.253 C 497.475 244.132, 497.549 245.030, 498.451 246.264 C 499.599 247.834, 499.873 247.858, 501.010 246.488 C 502.089 245.187, 502.009 245.059, 500.481 245.646 C 499.005 246.212, 498.781 245.945, 499.246 244.169 C 499.896 241.683, 499.672 241.486, 498.205 243.253 M 111.325 254.750 C 135.979 254.899, 176.029 254.899, 200.325 254.750 C 224.621 254.601, 204.450 254.479, 155.500 254.479 C 106.550 254.479, 86.671 254.601, 111.325 254.750 M 24.453 271.203 C 22.279 273.514, 21.216 274.868, 22.092 274.211 C 22.968 273.555, 23.868 273.126, 24.092 273.259 C 24.316 273.391, 24.381 273.306, 24.236 273.069 C 24.091 272.832, 25.187 271.370, 26.673 269.819 C 28.159 268.269, 29.156 267, 28.890 267 C 28.624 267, 26.627 268.891, 24.453 271.203 M 270.442 269.906 C 270.750 270.404, 271.902 270.577, 273.001 270.289 C 275.753 269.570, 275.505 269, 272.441 269 C 271.034 269, 270.134 269.408, 270.442 269.906 M 317.825 272.750 C 341.104 272.899, 378.904 272.899, 401.825 272.750 C 424.746 272.600, 405.700 272.478, 359.500 272.478 C 313.300 272.478, 294.546 272.600, 317.825 272.750 M 250.993 275.750 C 250.990 276.163, 250.877 325.325, 250.743 385 L 250.500 493.500 139.750 493.754 C 78.837 493.894, 28.894 493.894, 28.764 493.754 C 28.635 493.614, 28.292 456.150, 28.003 410.500 L 27.477 327.500 27.239 411.250 L 27 495 139.500 495 L 252 495 252 385 C 252 324.500, 251.775 275, 251.500 275 C 251.225 275, 250.997 275.337, 250.993 275.750 M 13.988 284.750 C 11.933 288.239, 11.919 288.374, 13.790 286.685 C 15.491 285.150, 17.473 281, 16.505 281 C 16.336 281, 15.203 282.688, 13.988 284.750 M 41.126 293.715 C 38.909 296.308, 37.309 298.643, 37.570 298.904 C 37.831 299.165, 39.047 298.080, 40.272 296.494 C 41.498 294.908, 43.578 292.573, 44.896 291.305 C 46.214 290.037, 46.811 289, 46.224 289 C 45.636 289, 43.342 291.122, 41.126 293.715 M 110.865 304.267 C 111.288 304.688, 123.753 304.913, 138.567 304.766 L 165.500 304.498 137.799 303.999 C 122.563 303.724, 110.443 303.845, 110.865 304.267 M 170.220 328.750 L 170 351 175.750 350.843 L 181.500 350.686 176.500 350.093 L 171.500 349.500 170.970 328 L 170.440 306.500 170.220 328.750 M 106.665 326.581 C 106.756 336.801, 107.093 345.426, 107.415 345.748 C 107.737 346.070, 108 337.708, 108 327.167 C 108 316.625, 107.662 308, 107.250 308 C 106.838 308, 106.574 316.361, 106.665 326.581 M 163.500 309 C 163.840 309.550, 164.766 310, 165.559 310 C 166.352 310, 167 309.550, 167 309 C 167 308.450, 166.073 308, 164.941 308 C 163.809 308, 163.160 308.450, 163.500 309 M 4.481 412 C 4.481 466.175, 4.602 488.337, 4.750 461.250 C 4.898 434.162, 4.898 389.837, 4.750 362.750 C 4.602 335.662, 4.481 357.825, 4.481 412 M 320.250 317.728 C 322.313 317.944, 325.688 317.944, 327.750 317.728 C 329.813 317.513, 328.125 317.336, 324 317.336 C 319.875 317.336, 318.188 317.513, 320.250 317.728 M 357.750 317.723 C 359.538 317.945, 362.462 317.945, 364.250 317.723 C 366.038 317.502, 364.575 317.320, 361 317.320 C 357.425 317.320, 355.962 317.502, 357.750 317.723 M 428.750 317.706 C 429.988 317.944, 432.012 317.944, 433.250 317.706 C 434.488 317.467, 433.475 317.272, 431 317.272 C 428.525 317.272, 427.512 317.467, 428.750 317.706 M 28.272 322 C 28.272 324.475, 28.467 325.488, 28.706 324.250 C 28.944 323.012, 28.944 320.988, 28.706 319.750 C 28.467 318.512, 28.272 319.525, 28.272 322 M 106 348.943 C 106 349.461, 104.088 350.057, 101.750 350.268 C 97.687 350.634, 97.731 350.658, 102.750 350.825 C 106.828 350.961, 108 350.665, 108 349.500 C 108 348.675, 107.550 348, 107 348 C 106.450 348, 106 348.424, 106 348.943 M 59.106 351.372 C 58.300 352.343, 58.050 360.607, 58.250 379.622 L 58.534 406.500 58.767 379.450 C 58.934 360.017, 59.338 352.062, 60.200 351.200 C 60.860 350.540, 61.140 350, 60.822 350 C 60.505 350, 59.732 350.618, 59.106 351.372 M 62.543 354.931 C 62.226 355.443, 62.425 356.144, 62.984 356.490 C 63.543 356.835, 64 356.674, 64 356.132 C 64 355.590, 64.787 354.941, 65.750 354.689 C 67.101 354.336, 67.001 354.206, 65.309 354.116 C 64.104 354.052, 62.859 354.419, 62.543 354.931 M 211.083 354.283 C 211.313 354.439, 212.287 355.169, 213.250 355.905 C 214.748 357.052, 215 357.011, 215 355.622 C 215 354.625, 214.165 354, 212.833 354 C 211.642 354, 210.854 354.127, 211.083 354.283 M 59.123 413.456 C 59.373 413.707, 69.801 413.977, 82.296 414.056 C 102.224 414.182, 105.125 414.402, 105.931 415.842 C 107.039 417.821, 108.493 416.726, 107.655 414.543 C 107.144 413.211, 103.752 413, 82.865 413 C 69.556 413, 58.872 413.205, 59.123 413.456 M 170.667 413.667 C 170.300 414.033, 170 425.133, 170 438.333 C 170 451.533, 170.269 462.064, 170.598 461.735 C 170.927 461.406, 171.265 451.018, 171.348 438.651 C 171.432 426.284, 171.874 415.791, 172.331 415.333 C 172.788 414.875, 183.588 414.259, 196.331 413.964 L 219.500 413.428 195.417 413.214 C 182.171 413.096, 171.033 413.300, 170.667 413.667 M 107.001 419.250 C 107.002 419.938, 106.919 429.380, 106.818 440.234 C 106.717 451.087, 106.910 460.243, 107.247 460.580 C 107.584 460.917, 107.904 451.474, 107.960 439.596 C 108.015 427.718, 107.822 418, 107.530 418 C 107.239 418, 107 418.563, 107.001 419.250 M 10.762 518.707 C 12.006 518.946, 13.806 518.937, 14.762 518.687 C 15.718 518.437, 14.700 518.241, 12.500 518.252 C 10.300 518.263, 9.518 518.468, 10.762 518.707" stroke="none" fill="#585858" fill-rule="evenodd"/><path d="M 247.523 3.963 C 247.196 4.493, 246.951 59.344, 246.980 125.856 C 247.014 203.918, 246.679 247.715, 246.035 249.407 L 245.039 252.028 153.972 251.984 C 103.886 251.960, 62.441 252.228, 61.872 252.579 C 60.795 253.245, 50.428 256.013, 48.250 256.217 C 47.563 256.281, 47 256.641, 47 257.016 C 47 257.392, 44.259 258.779, 40.910 260.099 C 37.560 261.420, 34.394 263.288, 33.874 264.250 C 33.355 265.212, 32.483 266, 31.938 266 C 30.220 266, 24.022 272.227, 24.680 273.292 C 25.026 273.851, 24.842 274.020, 24.271 273.667 C 23.207 273.010, 17 279.532, 17 281.308 C 17 281.850, 15.425 284.666, 13.500 287.566 C 11.575 290.466, 10 293.311, 10 293.889 C 10 294.466, 8.988 296.865, 7.750 299.219 L 5.500 303.500 5.500 410.997 L 5.500 518.493 132 518.567 C 201.575 518.608, 261.963 518.434, 266.195 518.181 L 273.890 517.722 273.949 397.111 C 273.981 330.775, 274.005 275.484, 274.004 274.243 L 274 271.986 365.250 272.039 C 467.369 272.100, 461.974 272.445, 477.764 264.836 C 482.309 262.646, 485.821 260.519, 485.568 260.110 C 485.315 259.701, 486.496 258.547, 488.193 257.545 C 491.868 255.374, 499 248.415, 499 247 C 499 246.450, 499.406 246, 499.903 246 C 501.037 246, 508 235.602, 508 233.909 C 508 233.221, 508.630 231.947, 509.400 231.079 C 510.170 230.210, 511.745 226.415, 512.900 222.645 C 514.977 215.864, 515 214.636, 515 109.395 L 515 3 381.559 3 C 297.096 3, 247.900 3.353, 247.523 3.963 M 378.750 5.754 L 250 6.008 249.981 8.254 C 249.971 9.489, 249.859 65.025, 249.731 131.667 C 249.604 198.308, 249.241 253.092, 248.925 253.408 C 248.609 253.724, 206.534 254.099, 155.425 254.241 C 87.651 254.430, 61.959 254.811, 60.500 255.650 C 59.400 256.282, 56.727 257.081, 54.560 257.425 C 50.434 258.079, 42.026 261.782, 40.765 263.499 C 40.361 264.050, 40.024 264.109, 40.015 263.631 C 40.007 263.154, 38.422 263.966, 36.494 265.437 C 34.566 266.907, 32.592 267.866, 32.107 267.566 C 31.622 267.267, 31.288 267.804, 31.363 268.760 C 31.450 269.859, 30.667 270.617, 29.235 270.821 C 27.990 270.998, 27.210 271.531, 27.503 272.006 C 27.797 272.480, 26.453 274.406, 24.518 276.285 C 22.583 278.164, 21 280.233, 21 280.882 C 21 281.532, 20.328 282.321, 19.506 282.636 C 18.684 282.952, 18.262 283.616, 18.569 284.112 C 18.876 284.608, 18.426 285.283, 17.569 285.612 C 16.712 285.941, 16.229 286.561, 16.495 286.991 C 16.761 287.422, 16.313 288.325, 15.500 289 C 14.687 289.675, 14.269 290.626, 14.570 291.113 C 14.871 291.601, 14.615 292, 14 292 C 13.385 292, 13.160 292.450, 13.500 293 C 13.840 293.550, 13.641 294, 13.059 294 C 12.477 294, 12.071 294.337, 12.159 294.750 C 12.337 295.594, 11.918 296.950, 9.916 302 C 8.772 304.885, 8.476 323.067, 8.233 405.435 C 8.050 467.359, 7.572 505.810, 6.977 506.527 C 6.449 507.163, 6.330 507.997, 6.713 508.380 C 7.096 508.763, 7.570 510.296, 7.766 511.788 C 7.963 513.280, 8.459 514.841, 8.869 515.258 C 9.279 515.674, 67.956 516.124, 139.261 516.258 L 268.907 516.500 269.953 514.203 C 270.664 512.644, 271 473.194, 271 391.428 L 271 270.950 273.697 269.925 C 275.476 269.249, 307.195 268.945, 366.947 269.031 C 464.097 269.172, 463.220 269.212, 472.269 264.130 C 474.329 262.973, 476.349 261.966, 476.757 261.893 C 479.021 261.488, 481.965 259.901, 484.668 257.626 C 486.348 256.212, 488.010 255.343, 488.361 255.695 C 488.713 256.046, 489 255.757, 489 255.052 C 489 253.920, 494.709 247.998, 497.558 246.177 C 498.139 245.804, 499.626 243.475, 500.861 241 C 502.096 238.525, 504.229 234.609, 505.601 232.299 C 506.973 229.988, 508.269 227.288, 508.481 226.299 C 508.692 225.309, 509.550 222.286, 510.386 219.579 C 511.223 216.873, 511.696 214.316, 511.437 213.898 C 511.179 213.480, 511.421 212.858, 511.975 212.516 C 513.150 211.789, 513.401 9.161, 512.229 7.412 C 511.828 6.814, 510.600 6.139, 509.500 5.912 C 508.400 5.686, 449.563 5.614, 378.750 5.754 M 71.500 277.097 C 65.583 278.432, 58.867 281.041, 55.750 283.217 C 54.237 284.272, 53 284.859, 53 284.520 C 53 284.181, 51.356 285.500, 49.347 287.452 C 47.337 289.403, 45.349 291, 44.928 291 C 44.507 291, 43.247 292.462, 42.127 294.250 C 41.008 296.038, 39.059 298.625, 37.796 300 C 35.064 302.974, 32.552 308.179, 31.518 313.004 C 31.106 314.927, 30.259 317.131, 29.635 317.903 C 28.814 318.918, 28.419 342.831, 28.206 404.403 C 28.044 451.206, 28.166 490.514, 28.476 491.754 L 29.040 494.009 139.770 493.754 L 250.500 493.500 250.500 385 L 250.500 276.500 163 276.348 C 113.987 276.262, 73.741 276.592, 71.500 277.097 M 108.678 303.823 C 107.743 304.003, 106.976 305.111, 106.945 306.323 C 106.915 307.520, 106.885 317.298, 106.877 328.051 C 106.870 338.804, 106.474 348.234, 105.996 349.007 C 105.293 350.143, 100.865 350.420, 82.814 350.456 C 70.541 350.480, 59.923 350.873, 59.219 351.328 C 58.220 351.974, 57.961 358.718, 58.044 381.892 C 58.103 398.247, 58.469 412.141, 58.858 412.770 C 59.349 413.565, 66.475 413.956, 82.300 414.056 C 103.348 414.190, 105.111 414.338, 106.031 416.058 C 106.608 417.137, 106.982 426.629, 106.922 438.707 C 106.866 450.143, 106.861 460.288, 106.910 461.250 C 106.994 462.878, 109.225 463, 139 463 C 163.905 463, 171.012 462.723, 171.053 461.750 C 171.083 461.063, 171.195 450.471, 171.303 438.213 C 171.467 419.640, 171.750 415.768, 173 414.979 C 173.827 414.456, 184.483 414.024, 196.750 414.015 C 213.872 414.004, 219.001 413.712, 219.006 412.750 C 219.191 371.453, 219.028 351.695, 218.499 351.166 C 218.133 350.800, 207.839 350.472, 195.625 350.437 C 183.410 350.403, 172.872 350.039, 172.208 349.628 C 171.322 349.081, 171 342.897, 171 326.441 C 171 314.098, 170.662 304.053, 170.250 304.118 C 169.838 304.184, 169.275 304.177, 169 304.103 C 167.849 303.795, 110.213 303.528, 108.678 303.823" stroke="none" fill="#9900ff" fill-rule="evenodd"/><path d="M 250 130.495 L 250 254.990 157.250 255.253 L 64.500 255.516 157.500 255.508 L 250.500 255.500 250.754 131.250 L 251.008 7 380.921 7 C 483.915 7, 510.938 7.259, 511.338 8.250 C 511.639 8.997, 511.874 8.795, 511.921 7.750 C 511.996 6.092, 505.125 6, 381 6 L 250 6 250 130.495 M 511.481 113 C 511.481 167.725, 511.602 190.112, 511.750 162.750 C 511.898 135.387, 511.898 90.612, 511.750 63.250 C 511.602 35.887, 511.481 58.275, 511.481 113 M 103.437 72.250 L 100.500 75.500 103.750 72.563 C 105.537 70.948, 107 69.485, 107 69.313 C 107 68.540, 106.175 69.221, 103.437 72.250 M 197.328 81.500 C 197.333 85.350, 197.513 86.802, 197.730 84.728 C 197.946 82.653, 197.943 79.503, 197.722 77.728 C 197.501 75.952, 197.324 77.650, 197.328 81.500 M 104 178.313 C 104 178.485, 105.463 179.948, 107.250 181.563 L 110.500 184.500 107.563 181.250 C 104.825 178.221, 104 177.540, 104 178.313 M 77 189.313 C 77 189.485, 78.463 190.948, 80.250 192.563 L 83.500 195.500 80.563 192.250 C 77.825 189.221, 77 188.540, 77 189.313 M 491.462 250.250 L 486.500 255.500 491.750 250.538 C 494.637 247.808, 497 245.446, 497 245.288 C 497 244.541, 496.074 245.372, 491.462 250.250 M 318.250 273.750 C 342.862 273.899, 383.137 273.899, 407.750 273.750 C 432.362 273.601, 412.225 273.479, 363 273.479 C 313.775 273.479, 293.637 273.601, 318.250 273.750 M 124.250 274.750 C 147.763 274.899, 186.238 274.899, 209.750 274.750 C 233.263 274.600, 214.025 274.478, 167 274.478 C 119.975 274.478, 100.738 274.600, 124.250 274.750 M 107.667 305.667 C 107.300 306.033, 107.007 306.821, 107.015 307.417 C 107.024 308.040, 107.375 307.957, 107.842 307.222 C 108.478 306.219, 115.349 306.003, 139.732 306.222 C 156.825 306.375, 170.602 306.163, 170.346 305.750 C 169.773 304.823, 108.591 304.742, 107.667 305.667 M 109.768 331.078 L 109.500 354.206 87.084 354.353 C 70.087 354.464, 64.566 354.804, 64.248 355.756 C 64.018 356.447, 63.418 356.758, 62.915 356.447 C 62.370 356.111, 62 367.039, 62 383.441 L 62 411 85.982 411 L 109.964 411 110.232 435.250 L 110.500 459.500 139.250 459.765 L 168 460.031 168 435.515 L 168 411 192 411 L 216 411 215.884 382.250 C 215.820 366.438, 215.564 354.278, 215.315 355.228 C 214.901 356.808, 214.661 356.824, 212.511 355.415 C 210.554 354.133, 206.669 353.912, 189.330 354.096 L 168.500 354.318 168.224 330.909 C 168.045 315.745, 167.615 308.028, 167.004 309 C 166.227 310.236, 165.707 310.280, 164.044 309.250 C 161.499 307.673, 115.462 307.443, 114.498 309.003 C 114.086 309.670, 113.237 309.662, 111.958 308.977 C 110.093 307.979, 110.029 308.618, 109.768 331.078 M 8.481 414.500 C 8.481 470.050, 8.602 492.922, 8.750 465.326 C 8.898 437.731, 8.898 392.281, 8.750 364.326 C 8.602 336.372, 8.481 358.950, 8.481 414.500 M 332.750 317.706 C 333.988 317.944, 336.012 317.944, 337.250 317.706 C 338.488 317.467, 337.475 317.272, 335 317.272 C 332.525 317.272, 331.512 317.467, 332.750 317.706 M 27.232 325 C 27.232 326.925, 27.438 327.712, 27.689 326.750 C 27.941 325.788, 27.941 324.212, 27.689 323.250 C 27.438 322.288, 27.232 323.075, 27.232 325 M 59.453 352.261 C 59.187 352.954, 59.096 367.017, 59.250 383.511 L 59.531 413.500 59.765 382.768 L 60 352.036 84.250 351.749 L 108.500 351.463 84.219 351.231 C 65.432 351.052, 59.828 351.285, 59.453 352.261 M 193.985 351.741 L 217.971 352.035 218.257 382.268 L 218.543 412.500 218.522 382 L 218.500 351.500 194.249 351.473 L 169.999 351.446 193.985 351.741 M 111.830 519.750 C 171.411 519.892, 268.611 519.892, 327.830 519.750 C 387.048 519.607, 338.300 519.491, 219.500 519.491 C 100.700 519.491, 52.248 519.608, 111.830 519.750 M 437.762 519.707 C 439.006 519.946, 440.806 519.937, 441.762 519.687 C 442.718 519.437, 441.700 519.241, 439.500 519.252 C 437.300 519.263, 436.518 519.468, 437.762 519.707" stroke="none" fill="#9966ff" fill-rule="evenodd"/><path d="M 296.246 2.750 L 514.991 3.004 515.250 112.752 L 515.509 222.500 515.754 112.250 L 516 2 296.750 2.248 L 77.500 2.495 296.246 2.750 M 27.437 29.250 L 24.500 32.500 27.750 29.563 C 30.779 26.825, 31.460 26, 30.687 26 C 30.515 26, 29.052 27.462, 27.437 29.250 M 127.500 53.017 C 98.718 56.082, 74.446 76.602, 64.222 106.512 C 56.297 129.700, 57.760 155.636, 68.086 175.009 C 81.955 201.031, 110.231 215.175, 141.723 211.845 C 152.538 210.702, 163.832 207.092, 171.951 202.182 C 187.226 192.946, 204.073 172.635, 199.039 169.524 C 198.510 169.197, 194.348 172.691, 189.789 177.289 C 178.078 189.099, 166.163 195.319, 150.128 197.992 C 135.328 200.460, 120.643 194.815, 107.515 181.611 C 92.247 166.254, 85.867 149.108, 85.894 123.500 C 85.911 107.351, 87.740 98.082, 93.047 87.260 C 109.501 53.702, 146.561 49.717, 175.503 78.393 C 182.637 85.461, 193.122 101.345, 194.551 107.250 C 195.005 109.124, 195.861 110, 197.240 110 C 199.159 110, 199.226 109.600, 198.542 102.250 C 198.145 97.987, 197.524 87.525, 197.160 79 C 196.797 70.475, 196.136 62.938, 195.691 62.250 C 194.375 60.217, 192.521 60.804, 190.158 64 C 188.938 65.650, 187.112 67, 186.101 67 C 185.089 67, 180.715 65.005, 176.381 62.567 C 166.281 56.887, 158.392 54.295, 147.346 53.030 C 137.722 51.927, 137.732 51.927, 127.500 53.017 M 7.482 181.500 C 7.482 239.800, 7.602 263.797, 7.750 234.827 C 7.897 205.856, 7.897 158.156, 7.750 128.827 C 7.603 99.497, 7.482 123.200, 7.482 181.500 M 113.825 251.750 C 138.204 251.899, 177.804 251.899, 201.825 251.750 C 225.846 251.600, 205.900 251.478, 157.500 251.479 C 109.100 251.479, 89.446 251.601, 113.825 251.750 M 451.250 269.689 C 452.212 269.941, 453.788 269.941, 454.750 269.689 C 455.712 269.438, 454.925 269.232, 453 269.232 C 451.075 269.232, 450.288 269.438, 451.250 269.689 M 270.484 391.500 C 270.484 458.600, 270.604 485.903, 270.750 452.173 C 270.896 418.443, 270.896 363.543, 270.750 330.173 C 270.604 296.803, 270.484 324.400, 270.484 391.500 M 244.750 275.706 C 245.988 275.944, 248.012 275.944, 249.250 275.706 C 250.488 275.467, 249.475 275.272, 247 275.272 C 244.525 275.272, 243.512 275.467, 244.750 275.706 M 307.210 318.895 C 306.636 320.390, 309.510 323, 311.731 323 C 314.203 323, 320.783 326.909, 322.952 329.666 C 326.051 333.606, 331.356 345.173, 337.972 362.416 C 344.293 378.890, 348.854 389.549, 380.448 461.686 C 383.624 468.938, 386.882 475.125, 387.689 475.434 C 390.046 476.339, 392.660 472.407, 399.611 457.500 C 403.202 449.800, 407.458 440.667, 409.070 437.205 C 410.681 433.743, 412 430.712, 412 430.470 C 412 430.228, 414.250 425.247, 417 419.402 C 419.750 413.557, 422 408.645, 422 408.487 C 422 408.328, 423.740 404.441, 425.866 399.849 C 427.992 395.257, 433.899 381.825, 438.993 370 C 455.028 332.775, 459.444 325.299, 466.800 322.931 C 471.082 321.552, 473 320.221, 473 318.628 C 473 317.816, 465.223 317.522, 445.250 317.580 C 420.568 317.651, 417.466 317.838, 417.188 319.271 C 416.964 320.428, 418.092 321.200, 421.188 322.008 C 439.127 326.691, 442.696 335.206, 435.952 357.233 C 434.084 363.337, 421.596 392.689, 412.549 412.242 C 411.211 415.134, 407.911 422.450, 405.216 428.500 C 398.769 442.975, 397.985 443.005, 392.187 429 C 379.998 399.555, 362.922 356.498, 361.018 350.402 C 355.112 331.505, 356.543 325.191, 367.315 322.605 C 369.381 322.109, 370.046 321.411, 369.815 319.981 C 369.512 318.105, 368.348 318.022, 338.622 317.766 C 312.957 317.545, 307.655 317.735, 307.210 318.895 M 212.250 350.689 C 213.213 350.941, 214.787 350.941, 215.750 350.689 C 216.713 350.438, 215.925 350.232, 214 350.232 C 212.075 350.232, 211.287 350.438, 212.250 350.689 M 122.750 462.748 C 131.688 462.914, 146.313 462.914, 155.250 462.748 C 164.188 462.582, 156.875 462.447, 139 462.447 C 121.125 462.447, 113.813 462.582, 122.750 462.748 M 74.250 515.750 C 109.862 515.895, 168.137 515.895, 203.750 515.750 C 239.362 515.604, 210.225 515.485, 139 515.485 C 67.775 515.485, 38.637 515.604, 74.250 515.750" stroke="none" fill="#1f1a17" fill-rule="evenodd"/><path d="M 272.246 138.750 L 272.500 250.500 355.500 250.509 L 438.500 250.517 355.750 250.253 L 273 249.989 273 138.994 L 273 28 381.995 28 L 490.989 28 491.250 115.250 L 491.511 202.500 491.756 114.750 L 492 27 381.996 27 L 271.991 27 272.246 138.750 M 451 59 L 444.500 59.655 451.809 59.827 C 456.468 59.937, 458.894 59.637, 458.500 59 C 458.160 58.450, 457.796 58.078, 457.691 58.173 C 457.586 58.268, 454.575 58.640, 451 59 M 415.607 61.582 C 414.647 64.084, 414.894 64.522, 416.250 62.721 C 417.189 61.472, 419.488 60.978, 425.500 60.731 L 433.500 60.402 424.857 60.201 C 417.774 60.036, 416.104 60.285, 415.607 61.582 M 427.657 62.714 C 419.368 63.018, 417.906 63.314, 418.396 64.589 C 418.726 65.450, 418.550 65.840, 417.989 65.493 C 417.445 65.157, 417 65.359, 417 65.941 C 417 66.523, 417.563 67.015, 418.250 67.033 C 418.938 67.052, 418.486 67.912, 417.248 68.945 C 415.747 70.198, 415.220 71.409, 415.668 72.576 C 416.152 73.839, 415.984 74.108, 415.063 73.539 C 414.106 72.947, 413.965 73.314, 414.500 75 C 414.948 76.413, 414.841 77.020, 414.212 76.631 C 412.901 75.821, 411.884 78.535, 412.701 80.664 C 413.102 81.708, 412.943 82.083, 412.275 81.670 C 411.689 81.308, 410.937 81.721, 410.605 82.588 C 409.737 84.850, 409.887 85.726, 410.876 84.166 C 411.553 83.099, 411.847 83.159, 412.349 84.468 C 412.695 85.368, 412.569 85.851, 412.069 85.543 C 411.570 85.234, 410.402 85.741, 409.474 86.669 C 407.477 88.665, 404.646 87.430, 404.258 84.393 C 404.035 82.644, 404.093 82.652, 405.019 84.500 C 405.784 86.026, 405.879 85.555, 405.420 82.508 C 404.657 77.445, 404.359 77.003, 401.691 76.985 C 399.910 76.972, 399.781 76.788, 401 76 C 402.349 75.128, 401.725 74.570, 399.750 74.882 C 399.337 74.947, 399 74.562, 399 74.026 C 399 72.591, 393.128 69.803, 391.816 70.614 C 391.084 71.066, 390.972 70.854, 391.495 70.009 C 392.112 69.009, 391.666 68.867, 389.565 69.394 C 387.776 69.843, 387.054 69.721, 387.475 69.040 C 387.879 68.387, 386.648 68, 384.166 68 C 379.975 68, 378.744 69.307, 379.656 72.791 C 379.941 73.882, 379.690 75.073, 379.099 75.439 C 378.421 75.858, 378.231 75.438, 378.587 74.302 C 379.126 72.579, 379.100 72.579, 377.992 74.311 C 377.354 75.307, 377.090 76.793, 377.405 77.613 C 377.774 78.574, 377.565 78.849, 376.819 78.388 C 376.054 77.916, 375.869 78.216, 376.274 79.271 C 376.611 80.151, 376.350 81.125, 375.694 81.435 C 374.769 81.873, 374.769 82.127, 375.694 82.565 C 376.350 82.875, 376.662 83.717, 376.386 84.436 C 376.111 85.154, 376.604 86.018, 377.483 86.355 C 378.394 86.705, 378.997 87.942, 378.885 89.234 C 378.434 94.445, 378.956 96.245, 380.780 95.768 C 381.758 95.512, 383.135 95.919, 383.839 96.673 C 384.544 97.427, 385.554 97.776, 386.085 97.448 C 386.615 97.120, 386.985 97.222, 386.906 97.676 C 386.828 98.129, 386.816 100.439, 386.882 102.809 C 386.961 105.683, 387.369 106.890, 388.107 106.434 C 388.859 105.969, 389.003 106.512, 388.555 108.125 C 387.907 110.461, 387.924 110.467, 389.552 108.500 C 391.193 106.517, 391.202 106.518, 390.563 108.666 C 390.188 109.925, 390.419 111.141, 391.114 111.570 C 391.831 112.014, 392.047 111.885, 391.653 111.248 C 391.237 110.575, 391.760 110.386, 393.083 110.732 C 394.710 111.157, 394.875 111.486, 393.835 112.223 C 392.944 112.854, 393.664 112.975, 396 112.586 C 398.485 112.172, 399.065 112.288, 398 112.986 C 396.916 113.697, 398.162 114.030, 402.500 114.187 C 405.800 114.307, 410.075 114.464, 412 114.537 C 414.569 114.633, 415.429 115.081, 415.232 116.220 C 415.085 117.074, 415.679 118.046, 416.551 118.381 C 417.649 118.802, 417.929 119.647, 417.462 121.120 C 417.011 122.539, 417.150 123.025, 417.878 122.576 C 418.622 122.116, 418.789 122.951, 418.401 125.200 C 417.968 127.708, 418.088 128.140, 418.900 127 C 419.728 125.838, 419.973 126.446, 419.985 129.691 C 419.993 131.996, 419.507 134.187, 418.904 134.559 C 418.301 134.932, 417.995 136.510, 418.223 138.066 C 418.451 139.621, 418.270 140.667, 417.819 140.388 C 417.065 139.922, 416.620 141.697, 416.730 144.739 C 416.754 145.421, 416.299 145.684, 415.717 145.325 C 415.063 144.921, 414.899 145.293, 415.286 146.304 C 415.822 147.699, 414.763 149.213, 413 149.571 C 410.829 150.012, 409.126 151.395, 409.670 152.275 C 410.080 152.939, 409.712 153.104, 408.691 152.712 C 407.692 152.328, 405.875 153.076, 404.027 154.631 C 402.362 156.032, 401 156.725, 401 156.172 C 401 155.619, 401.563 154.954, 402.250 154.695 C 403.396 154.263, 401.165 154.407, 390.750 155.438 C 388.640 155.647, 387 155.367, 387 154.796 C 387 154.215, 385.935 154.051, 384.500 154.411 C 382.925 154.806, 382 154.615, 382 153.894 C 382 153.142, 380.886 152.964, 378.750 153.374 C 376.274 153.849, 375.857 153.740, 377 152.918 C 378.158 152.085, 377.853 151.980, 375.666 152.459 C 374.108 152.801, 373.063 152.708, 373.344 152.252 C 373.626 151.797, 372.549 150.846, 370.952 150.139 C 369.355 149.432, 368.150 148.324, 368.274 147.677 C 368.398 147.030, 367.991 146.595, 367.369 146.710 C 366.747 146.826, 365.397 145.926, 364.369 144.710 C 362.519 142.523, 362.521 142.516, 364.555 144 C 365.685 144.825, 365.235 144.248, 363.555 142.718 C 361.875 141.189, 360.500 139.465, 360.500 138.888 C 360.500 138.311, 359.606 137.185, 358.514 136.387 C 357.138 135.380, 356.624 134.024, 356.839 131.967 C 357.025 130.200, 356.680 129, 355.987 129 C 355.184 129, 355.024 127.685, 355.471 124.750 C 355.897 121.951, 355.795 120.971, 355.171 121.878 C 354.142 123.375, 351.599 122.458, 352.543 120.931 C 352.859 120.419, 352.454 120, 351.642 120 C 350.831 120, 349.978 120.338, 349.747 120.750 C 349.517 121.162, 349.484 120.887, 349.675 120.139 C 349.896 119.275, 349.470 118.989, 348.511 119.357 C 347.680 119.676, 347 119.501, 347 118.969 C 347 117.596, 344.264 117.764, 343.382 119.191 C 342.977 119.846, 343.158 120.553, 343.784 120.761 C 344.478 120.993, 344.693 122.285, 344.336 124.070 C 343.966 125.921, 344.164 127, 344.875 127 C 345.521 127, 346 128.704, 346 131 C 346 133.200, 345.550 135, 345 135 C 344.450 135, 344 135.477, 344 136.059 C 344 136.641, 344.450 136.840, 345 136.500 C 345.550 136.160, 346 136.557, 346 137.382 C 346 138.207, 345.480 139.203, 344.845 139.595 C 344.130 140.038, 343.962 139.870, 344.405 139.155 C 345.518 137.352, 343.407 137.800, 341.872 139.692 C 340.689 141.151, 340.707 141.266, 342 140.532 C 342.825 140.063, 343.161 140.053, 342.747 140.509 C 341.624 141.747, 331.940 141.906, 332.701 140.674 C 333.082 140.058, 332.655 139.918, 331.612 140.319 C 330.456 140.762, 330.130 140.599, 330.612 139.819 C 331.090 139.045, 330.775 138.872, 329.664 139.299 C 328.749 139.650, 328 139.475, 328 138.910 C 328 138.344, 327.561 138.153, 327.024 138.485 C 326.487 138.817, 324.799 138.412, 323.274 137.584 C 320.080 135.852, 321.027 135.432, 324.316 137.122 C 327.624 138.822, 325.029 136.637, 320.569 133.966 C 317.341 132.034, 316.754 131.916, 317.287 133.306 C 317.645 134.238, 317.515 135, 317 135 C 316.485 135, 316.304 135.629, 316.600 136.399 C 316.895 137.168, 316.586 138.138, 315.914 138.553 C 315.063 139.079, 314.942 138.882, 315.517 137.905 C 315.972 137.132, 315.366 137.357, 314.172 138.405 C 311.782 140.501, 311.293 141.543, 313.250 140.367 C 314.157 139.822, 314.137 140.064, 313.177 141.249 C 312.432 142.167, 311.158 142.614, 310.263 142.271 C 309.215 141.869, 308.916 142.056, 309.388 142.819 C 309.852 143.569, 309.571 143.773, 308.590 143.396 C 307.686 143.049, 306.050 143.922, 304.528 145.564 C 303.127 147.076, 301.700 148.034, 301.359 147.692 C 301.017 147.350, 299.858 147.541, 298.783 148.116 C 297.708 148.691, 297.077 149.410, 297.380 149.714 C 298 150.333, 293.652 154.012, 292.342 153.978 C 291.879 153.966, 292.625 153.020, 294 151.876 L 296.500 149.796 293 151.730 C 290.597 153.058, 289.591 154.266, 289.792 155.582 C 290.034 157.177, 289.910 157.247, 289.057 156 C 288.492 155.175, 287.967 154.838, 287.890 155.250 C 287.813 155.662, 287.682 156.338, 287.599 156.750 C 287.178 158.843, 283.646 162.900, 282.736 162.337 C 282.157 161.979, 281.986 162.168, 282.352 162.760 C 282.715 163.348, 282.447 164.057, 281.756 164.336 C 280.758 164.738, 280.757 164.858, 281.750 164.921 C 282.438 164.964, 283 165.498, 283 166.107 C 283 166.716, 282.292 166.942, 281.427 166.610 C 280.311 166.182, 279.952 166.514, 280.191 167.754 C 280.376 168.714, 281.061 169.500, 281.714 169.500 C 282.366 169.500, 283.485 170.153, 284.200 170.952 C 285.322 172.205, 285.261 172.222, 283.750 171.079 C 282.788 170.351, 282 170.205, 282 170.755 C 282 172.131, 284.540 174.126, 285.311 173.356 C 285.656 173.011, 285.502 174.249, 284.969 176.108 C 284.436 177.966, 284 179.553, 284 179.634 C 284 179.715, 290.637 179.647, 298.750 179.483 C 307.843 179.299, 311.199 179.452, 307.500 179.882 C 302.999 180.406, 306.159 180.696, 320.147 181.040 C 336.785 181.450, 339.024 181.708, 340.925 183.430 C 342.573 184.923, 342.993 186.317, 342.778 189.584 C 342.625 191.907, 342.185 193.614, 341.800 193.376 C 341.162 192.982, 339.722 194.995, 338.849 197.500 C 338.657 198.050, 338.163 198.387, 337.750 198.250 C 337.337 198.112, 337 198.702, 337 199.559 C 337 200.416, 337.423 200.857, 337.939 200.537 C 338.456 200.218, 338.817 200.782, 338.741 201.792 C 338.665 202.801, 339.184 205.030, 339.895 206.746 C 340.831 209.007, 341.643 209.695, 342.843 209.246 C 344.234 208.725, 344.297 208.876, 343.238 210.180 C 342.204 211.454, 342.274 211.983, 343.628 213.107 C 346.358 215.372, 351.012 215.111, 352.011 212.637 C 352.485 211.462, 352.902 211.089, 352.937 211.809 C 352.971 212.529, 353.457 212.835, 354.016 212.490 C 354.575 212.144, 354.805 211.494, 354.527 211.044 C 354.249 210.594, 354.579 210.246, 355.261 210.270 C 360.082 210.444, 363.043 209.879, 362.438 208.900 C 361.961 208.127, 362.389 208.138, 363.879 208.935 C 365.046 209.560, 366 210.531, 366 211.094 C 366 211.657, 366.450 211.840, 367 211.500 C 367.550 211.160, 368 211.359, 368 211.941 C 368 212.523, 368.702 213, 369.559 213 C 370.416 213, 370.840 212.550, 370.500 212 C 370.160 211.450, 370.359 211, 370.941 211 C 371.523 211, 372 210.100, 372 209 C 372 207.082, 372.667 207, 388.300 207 C 399.955 207, 404.984 206.644, 405.947 205.750 C 407.024 204.750, 407.152 204.750, 406.588 205.750 C 406.170 206.491, 406.452 207, 407.280 207 C 408.050 207, 409.205 205.846, 409.847 204.436 C 410.523 202.953, 410.590 202.135, 410.008 202.495 C 408.313 203.543, 408.889 201.335, 410.692 199.872 C 411.842 198.940, 412.143 198.901, 411.633 199.750 C 411.220 200.438, 411.124 201, 411.421 201 C 412.463 201, 415.906 193.238, 415.207 192.463 C 414.818 192.032, 414.995 191.961, 415.599 192.306 C 416.204 192.650, 417.251 191.900, 417.925 190.640 C 419.020 188.594, 419.760 188.384, 424.826 188.680 C 428.925 188.919, 429.945 188.750, 428.500 188.071 C 427.134 187.428, 428.475 187.312, 432.729 187.705 C 438.956 188.280, 442.042 187.252, 441.968 184.628 C 441.951 184.007, 441.276 184.374, 440.468 185.441 C 439.661 186.509, 439 186.916, 439 186.346 C 439 185.263, 442.753 181.500, 443.833 181.500 C 444.176 181.500, 444.552 180.847, 444.669 180.049 C 444.786 179.252, 446.400 177.227, 448.255 175.549 C 452.072 172.098, 456.110 167.301, 454.319 168.344 C 453.670 168.723, 452.849 168.564, 452.495 167.992 C 452.141 167.419, 452.222 167.015, 452.676 167.094 C 454.718 167.448, 456.064 166.912, 455.485 165.975 C 455.136 165.412, 455.391 165.074, 456.051 165.225 C 456.710 165.376, 457.477 164.875, 457.755 164.111 C 458.103 163.151, 457.833 162.973, 456.880 163.533 C 456.121 163.979, 456.357 163.366, 457.405 162.172 C 459.676 159.582, 460.833 159.250, 458.872 161.750 C 457.621 163.346, 457.658 163.376, 459.296 162.090 C 460.283 161.314, 460.860 160.077, 460.577 159.340 C 460.294 158.603, 460.708 158, 461.496 158 C 463.199 158, 465.238 154.604, 464.215 153.471 C 463.822 153.036, 463.991 152.959, 464.591 153.300 C 465.191 153.642, 466.667 152.589, 467.871 150.961 C 469.075 149.332, 469.596 148, 469.030 148 C 468.463 148, 468 147.523, 468 146.941 C 468 146.359, 468.450 146.160, 469 146.500 C 469.550 146.840, 470 146.615, 470 146 C 470 145.385, 470.419 145.141, 470.931 145.457 C 471.443 145.774, 472.144 145.575, 472.490 145.016 C 472.835 144.457, 472.754 144, 472.309 144 C 471.864 144, 471.795 139.838, 472.156 134.750 C 472.517 129.663, 472.777 121.225, 472.733 116 C 472.655 106.564, 472.650 106.544, 471.922 113 C 471.519 116.575, 471.401 109.744, 471.659 97.820 C 472.116 76.769, 472.070 76.108, 470.087 75.047 C 468.339 74.111, 468.141 74.204, 468.713 75.694 C 469.305 77.238, 469.202 77.269, 467.795 75.967 C 466.923 75.160, 466.384 74.212, 466.596 73.859 C 466.809 73.507, 465.806 72.448, 464.368 71.506 C 462.930 70.563, 462.058 70.284, 462.429 70.885 C 462.845 71.558, 462.532 71.758, 461.615 71.406 C 460.796 71.092, 460.373 70.191, 460.675 69.405 C 461.338 67.678, 459.159 64.784, 457.820 65.611 C 457.295 65.936, 457.009 65.368, 457.183 64.350 C 457.473 62.656, 456.657 62.494, 447.500 62.427 C 442 62.386, 433.071 62.516, 427.657 62.714 M 440.750 63.723 C 442.538 63.945, 445.462 63.945, 447.250 63.723 C 449.038 63.502, 447.575 63.320, 444 63.320 C 440.425 63.320, 438.962 63.502, 440.750 63.723 M 378 65.799 C 378 66.239, 379.688 66.431, 381.750 66.227 C 387.555 65.651, 387.978 65.166, 382.750 65.079 C 380.137 65.036, 378 65.360, 378 65.799 M 398 70.109 C 399.925 71.264, 402.625 73.175, 404 74.355 L 406.500 76.500 404.241 73.926 C 402.998 72.510, 402.323 70.975, 402.741 70.515 C 403.158 70.056, 402.938 70.003, 402.252 70.398 C 401.565 70.793, 400.003 70.415, 398.779 69.558 C 397.556 68.701, 396.093 68.002, 395.527 68.004 C 394.962 68.006, 396.075 68.953, 398 70.109 M 474.389 86.500 C 474.390 93.650, 474.550 96.444, 474.742 92.708 C 474.935 88.973, 474.934 83.123, 474.739 79.708 C 474.545 76.294, 474.387 79.350, 474.389 86.500 M 407.015 78.250 C 407.024 79.487, 407.473 81.175, 408.014 82 C 408.718 83.074, 408.825 82.603, 408.392 80.344 C 407.906 77.808, 408.152 77.094, 409.644 76.710 C 411.172 76.317, 411.102 76.211, 409.250 76.116 C 407.545 76.028, 407.004 76.545, 407.015 78.250 M 382 99.976 C 382 100.604, 382.416 100.861, 382.924 100.547 C 383.433 100.233, 384.062 100.665, 384.323 101.507 C 384.689 102.692, 384.763 102.657, 384.648 101.352 C 384.483 99.469, 382 98.179, 382 99.976 M 385.015 109.309 C 385.007 110.304, 384.555 110.843, 384.011 110.507 C 383.420 110.142, 383.293 110.600, 383.695 111.648 C 384.112 112.734, 384.520 112.941, 384.769 112.193 C 384.990 111.530, 385.582 111.242, 386.085 111.553 C 387.277 112.289, 387.231 110.904, 386 109 C 385.178 107.728, 385.028 107.775, 385.015 109.309 M 339.369 114.480 C 338.543 116.633, 339.214 117.109, 340.740 115.452 C 341.528 114.597, 341.617 113.881, 340.983 113.489 C 340.435 113.151, 339.708 113.596, 339.369 114.480 M 400.250 116.689 C 401.212 116.941, 402.788 116.941, 403.750 116.689 C 404.712 116.438, 403.925 116.232, 402 116.232 C 400.075 116.232, 399.288 116.438, 400.250 116.689 M 475.214 133.921 C 475.044 143.006, 474.650 145.768, 473.287 147.421 L 471.574 149.500 473.822 147.438 C 475.942 145.492, 476.051 144.727, 475.748 133.938 L 475.428 122.500 475.214 133.921 M 314 129.418 C 314 132.852, 312.969 135.099, 311.741 134.340 C 311.108 133.949, 310.990 134.175, 311.443 134.909 C 311.857 135.578, 311.589 136.910, 310.848 137.868 C 310.107 138.827, 310.738 138.341, 312.250 136.790 C 313.992 135.002, 315 132.886, 315 131.016 C 315 128.656, 315.351 128.176, 316.750 128.626 C 318.227 129.101, 318.266 129.020, 317 128.110 C 314.710 126.463, 314 126.772, 314 129.418 M 342.232 131 C 342.232 132.925, 342.438 133.713, 342.689 132.750 C 342.941 131.787, 342.941 130.213, 342.689 129.250 C 342.438 128.287, 342.232 129.075, 342.232 131 M 359.079 132.076 C 358.963 134.399, 363.580 138.489, 364.549 136.921 C 365.001 136.189, 364.895 135.947, 364.288 136.322 C 363.218 136.983, 360.651 134.561, 359.709 132 C 359.237 130.715, 359.147 130.726, 359.079 132.076 M 366.681 139.612 C 367.176 140.902, 366.987 141.123, 365.920 140.503 C 365.139 140.049, 365.591 140.875, 366.924 142.339 C 369.761 145.452, 369.667 145.411, 369.667 143.556 C 369.667 142.761, 369.179 142.199, 368.583 142.306 C 367.988 142.412, 367.624 141.746, 367.777 140.825 C 367.929 139.904, 367.596 138.869, 367.038 138.523 C 366.421 138.142, 366.281 138.568, 366.681 139.612 M 371 147.276 C 371.825 148.106, 373.625 149.054, 375 149.383 C 376.375 149.712, 376.963 149.732, 376.306 149.426 C 375.650 149.121, 375.360 148.225, 375.663 147.435 C 375.966 146.646, 375.689 146, 375.048 146 C 374.407 146, 374.160 146.450, 374.500 147 C 375.306 148.304, 374.389 148.266, 371.684 146.883 C 369.739 145.888, 369.664 145.931, 371 147.276 M 285.437 154.250 L 282.500 157.500 285.750 154.563 C 288.779 151.825, 289.460 151, 288.687 151 C 288.515 151, 287.052 152.463, 285.437 154.250 M 392.250 152.716 C 393.762 152.945, 396.238 152.945, 397.750 152.716 C 399.262 152.487, 398.025 152.300, 395 152.300 C 391.975 152.300, 390.738 152.487, 392.250 152.716 M 463.405 160.172 C 462.357 161.366, 462.024 162.039, 462.665 161.666 C 463.305 161.293, 464.019 161.328, 464.251 161.744 C 464.483 162.160, 464.556 161.992, 464.414 161.372 C 464.272 160.751, 464.661 159.739, 465.278 159.122 C 465.895 158.505, 466.155 158, 465.855 158 C 465.555 158, 464.453 158.977, 463.405 160.172 M 286.776 182.733 C 289.128 182.945, 292.728 182.942, 294.776 182.727 C 296.824 182.512, 294.900 182.339, 290.500 182.343 C 286.100 182.346, 284.424 182.522, 286.776 182.733 M 314.206 183.741 C 317.895 183.932, 324.195 183.934, 328.206 183.743 C 332.218 183.553, 329.200 183.396, 321.500 183.395 C 313.800 183.393, 310.518 183.549, 314.206 183.741 M 442.087 188.396 C 441.145 189.530, 441.168 189.798, 442.194 189.648 C 443.576 189.445, 444.467 188.133, 443.726 187.393 C 443.483 187.150, 442.746 187.601, 442.087 188.396 M 432.762 190.707 C 434.006 190.946, 435.806 190.937, 436.762 190.687 C 437.718 190.437, 436.700 190.241, 434.500 190.252 C 432.300 190.263, 431.518 190.468, 432.762 190.707 M 419.278 192.250 C 417.336 194.761, 416.884 196.429, 418.775 194.107 C 420.294 192.242, 421.306 191.860, 423.362 192.376 C 424.920 192.767, 426 192.621, 426 192.019 C 426 190.564, 420.434 190.755, 419.278 192.250 M 413.529 201.943 C 412.339 204.245, 412.279 205.043, 413.254 205.604 C 413.939 205.998, 414.180 205.966, 413.790 205.534 C 413.399 205.101, 413.748 203.453, 414.566 201.873 C 415.383 200.293, 415.826 199, 415.551 199 C 415.276 199, 414.366 200.324, 413.529 201.943 M 382.750 209.745 C 387.837 209.927, 396.162 209.927, 401.250 209.745 C 406.337 209.564, 402.175 209.415, 392 209.415 C 381.825 209.415, 377.662 209.564, 382.750 209.745 M 358.442 212.906 C 358.750 213.404, 359.902 213.577, 361.001 213.289 C 363.753 212.570, 363.505 212, 360.441 212 C 359.034 212, 358.134 212.408, 358.442 212.906 M 480.465 225.798 C 481.233 226.567, 478.967 230.097, 478.063 229.539 C 477.603 229.255, 476.671 229.692, 475.991 230.511 C 475.311 231.330, 475.123 232, 475.574 232 C 476.024 232, 474.844 233.688, 472.951 235.750 C 470.237 238.707, 470.530 238.549, 474.336 235 C 480.658 229.105, 483.434 225.333, 481.449 225.333 C 480.652 225.333, 480.209 225.543, 480.465 225.798" stroke="none" fill="#3a962d" fill-rule="evenodd"/><path d="M 273 139.031 L 273 250.063 360.250 249.776 C 445.653 249.495, 447.627 249.445, 453.500 247.408 C 456.978 246.202, 459.385 244.807, 459.225 244.089 C 459.074 243.408, 459.371 243.111, 459.885 243.429 C 461.212 244.249, 464.102 242.975, 463.420 241.870 C 463.107 241.364, 463.222 241.015, 463.676 241.094 C 464.129 241.172, 465.073 241.184, 465.772 241.118 C 467.541 240.954, 476.083 232.943, 475.498 231.998 C 475.236 231.574, 475.805 230.613, 476.761 229.863 C 478.356 228.613, 478.386 228.665, 477.125 230.500 C 476.369 231.600, 476.938 231.230, 478.390 229.678 C 479.841 228.125, 480.764 226.427, 480.440 225.903 C 480.116 225.379, 480.447 225.074, 481.176 225.225 C 481.908 225.377, 482.439 224.723, 482.363 223.761 C 482.288 222.804, 482.568 222.233, 482.985 222.491 C 483.894 223.053, 489.425 211.091, 488.626 210.292 C 488.320 209.987, 488.730 208.796, 489.535 207.646 C 490.795 205.848, 491 193.121, 491 116.777 L 491 28 382 28 L 273 28 273 139.031 M 450.500 59.099 C 446.650 59.458, 437.321 59.807, 429.769 59.876 L 416.038 60 415.412 62.493 C 415.065 63.879, 414.321 64.699, 413.739 64.339 C 413.114 63.953, 412.990 64.175, 413.431 64.888 C 413.838 65.546, 413.368 68.316, 412.388 71.042 C 411.010 74.874, 410.122 76, 408.477 76 C 406.032 76, 401.605 71.767, 402.741 70.515 C 403.158 70.056, 402.950 69.995, 402.278 70.381 C 401.606 70.767, 400.031 70.428, 398.778 69.627 C 395.513 67.539, 386.268 65, 381.935 65 C 379.273 65, 378.088 65.492, 377.717 66.750 C 377.432 67.713, 376.076 71.520, 374.703 75.211 C 372.362 81.505, 372.296 82.181, 373.651 86.114 C 374.446 88.420, 374.826 91.012, 374.495 91.873 C 374.165 92.734, 374.244 93.089, 374.672 92.661 C 375.100 92.233, 375.949 93.372, 376.559 95.191 C 377.289 97.368, 378.409 98.609, 379.834 98.820 C 381.025 98.995, 382 99.584, 382 100.129 C 382 100.673, 382.399 100.872, 382.886 100.570 C 383.969 99.901, 384.968 103.344, 384.986 107.809 C 384.994 109.738, 384.588 110.863, 384.011 110.507 C 383.420 110.142, 383.293 110.600, 383.695 111.648 C 384.103 112.711, 384.523 112.931, 384.764 112.207 C 385.055 111.335, 385.692 111.300, 387.145 112.078 C 388.836 112.983, 388.935 113.387, 387.815 114.820 C 386.646 116.313, 386.687 116.353, 388.186 115.181 C 389.529 114.129, 390.334 114.108, 392.143 115.077 C 394.393 116.281, 396.531 116.573, 406.814 117.084 C 411.437 117.313, 412.309 117.696, 413.513 120.025 C 415.059 123.016, 415.190 123.927, 415.306 132.575 C 415.388 138.660, 413.483 145.417, 411.953 144.471 C 411.505 144.194, 410.813 144.494, 410.415 145.138 C 409.963 145.869, 410.124 146.041, 410.845 145.595 C 411.480 145.203, 412 145.347, 412 145.915 C 412 147.393, 406.158 150.216, 404.816 149.386 C 404.177 148.991, 403.967 149.137, 404.329 149.724 C 405.827 152.147, 392.135 152.716, 382.500 150.631 C 373.130 148.604, 369.297 146.183, 369.906 142.676 C 369.985 142.222, 369.654 142.096, 369.170 142.395 C 367.810 143.235, 363.675 138.335, 364.550 136.920 C 365.001 136.189, 364.895 135.947, 364.288 136.322 C 362.276 137.565, 359.865 133.112, 358.914 126.398 C 357.990 119.869, 356.977 118.049, 354.250 118.015 C 353.563 118.007, 353 117.523, 353 116.941 C 353 116.359, 352.635 116.107, 352.190 116.383 C 351.188 117.002, 342.927 115.039, 341.339 113.805 C 339.242 112.176, 338.949 114.683, 340.477 121.167 C 342.742 130.773, 342.498 135.627, 339.658 137.488 C 337.604 138.834, 336.824 138.849, 333.316 137.611 C 327.732 135.642, 319.801 130.548, 320.729 129.527 C 321.153 129.061, 320.934 129.005, 320.242 129.403 C 319.551 129.802, 318.281 129.424, 317.421 128.564 C 315.189 126.332, 314 126.628, 314 129.418 C 314 132.680, 312.987 135.110, 311.907 134.442 C 311.421 134.142, 311.259 134.510, 311.547 135.261 C 311.835 136.012, 311.267 137.330, 310.285 138.191 C 306.805 141.241, 293.797 147.994, 292.657 147.341 C 292.021 146.977, 291.822 147.036, 292.216 147.473 C 292.610 147.909, 291.207 149.516, 289.098 151.044 C 286.989 152.572, 284.269 155.217, 283.055 156.923 C 281.841 158.628, 280.437 159.770, 279.935 159.460 C 279.433 159.150, 279.289 159.591, 279.615 160.440 C 279.948 161.308, 279.581 162.224, 278.775 162.533 C 276.563 163.382, 277.199 169.518, 279.785 172.271 C 281.819 174.436, 282.987 178.727, 281.250 177.655 C 280.837 177.400, 280.437 178.237, 280.361 179.515 C 280.264 181.128, 280.876 181.995, 282.361 182.348 C 283.537 182.628, 296.200 183.162, 310.500 183.535 C 330.276 184.050, 337.039 184.551, 338.750 185.629 C 341.409 187.304, 341.551 188.306, 339.429 190.429 C 338.564 191.293, 338.193 192, 338.603 192 C 339.013 192, 338.279 193.138, 336.972 194.529 C 335.665 195.921, 334.001 196.831, 333.275 196.552 C 332.262 196.163, 332.192 196.489, 332.973 197.950 C 333.534 198.998, 333.727 200.675, 333.402 201.678 C 332.983 202.969, 333.082 203.124, 333.739 202.211 C 334.912 200.581, 338.152 208.301, 337.350 210.813 C 336.890 212.254, 336.968 212.282, 337.890 211 C 338.849 209.667, 338.984 209.667, 339.103 211 C 339.177 211.825, 339.172 212.871, 339.094 213.324 C 339.015 213.778, 339.412 213.864, 339.975 213.515 C 340.539 213.167, 341 213.348, 341 213.918 C 341 215.538, 345.500 218.083, 349.170 218.538 C 351.715 218.854, 352.147 218.702, 351 217.895 C 349.864 217.094, 350.227 216.986, 352.500 217.449 C 354.338 217.824, 354.997 217.724, 354.203 217.192 C 353.165 216.497, 353.219 216.063, 354.474 215.022 C 356.890 213.017, 362.656 212.771, 366.053 214.528 C 369.816 216.473, 372.800 215.646, 373.606 212.433 L 374.217 210 391.948 210 L 409.679 210 410.844 207.444 C 411.539 205.917, 412.472 205.173, 413.159 205.598 C 413.791 205.989, 414.041 205.876, 413.714 205.346 C 413.387 204.817, 414.612 201.710, 416.436 198.442 C 419.439 193.064, 420.050 192.514, 422.877 192.647 C 424.595 192.729, 426 192.364, 426 191.838 C 426 191.312, 426.337 191.077, 426.750 191.315 C 427.398 191.689, 436.375 190.748, 442.495 189.664 C 443.665 189.457, 444.493 188.522, 444.495 187.405 C 444.498 186.354, 445.094 185.623, 445.824 185.775 C 446.560 185.927, 446.850 185.566, 446.476 184.962 C 445.616 183.570, 448.934 179.841, 450.288 180.678 C 450.862 181.033, 451.006 180.818, 450.617 180.189 C 449.598 178.541, 463.187 160.733, 464.285 162.279 C 464.907 163.155, 465.030 163.077, 464.719 162 C 464.141 160.002, 467.857 154.793, 469.246 155.652 C 469.933 156.076, 470.116 155.745, 469.739 154.763 C 469.372 153.805, 470.459 151.655, 472.545 149.219 L 475.951 145.239 475.315 109.675 L 474.679 74.110 471.799 72.917 C 467.566 71.163, 463.884 67.997, 464.645 66.765 C 465.010 66.174, 464.861 65.968, 464.314 66.306 C 463.304 66.930, 459 61.902, 459 60.100 C 459 58.533, 457.921 58.406, 450.500 59.099 M 440.750 63.723 C 442.538 63.945, 445.462 63.945, 447.250 63.723 C 449.038 63.502, 447.575 63.320, 444 63.320 C 440.425 63.320, 438.962 63.502, 440.750 63.723 M 408.015 79.250 C 408.028 81.069, 408.216 81.213, 409 80 C 410.253 78.061, 410.253 77, 409 77 C 408.450 77, 408.007 78.013, 408.015 79.250 M 471.389 106.500 C 471.390 113.650, 471.550 116.444, 471.742 112.708 C 471.935 108.973, 471.934 103.123, 471.739 99.708 C 471.545 96.294, 471.387 99.350, 471.389 106.500 M 419.272 130 C 419.272 132.475, 419.467 133.488, 419.706 132.250 C 419.944 131.012, 419.944 128.988, 419.706 127.750 C 419.467 126.513, 419.272 127.525, 419.272 130 M 345.272 131 C 345.272 133.475, 345.467 134.488, 345.706 133.250 C 345.944 132.012, 345.944 129.988, 345.706 128.750 C 345.467 127.513, 345.272 128.525, 345.272 131 M 471.826 136.002 C 471.647 140.404, 471.837 144.004, 472.250 144.002 C 472.663 144.001, 473 140.400, 473 136 C 473 131.600, 472.809 128, 472.576 128 C 472.343 128, 472.006 131.601, 471.826 136.002 M 323 137.500 C 324.375 138.286, 325.950 138.929, 326.500 138.929 C 327.050 138.929, 326.375 138.286, 325 137.500 C 323.625 136.714, 322.050 136.071, 321.500 136.071 C 320.950 136.071, 321.625 136.714, 323 137.500 M 294 152 C 292.625 153.076, 291.879 153.966, 292.342 153.978 C 292.806 153.990, 294.329 153.100, 295.727 152 C 297.126 150.900, 297.872 150.010, 297.385 150.022 C 296.898 150.034, 295.375 150.924, 294 152 M 285.323 159.250 C 283.068 161.755, 281.650 164, 282.322 164 C 282.564 164, 283.964 162.425, 285.432 160.500 C 288.444 156.552, 288.383 155.851, 285.323 159.250 M 297.287 179.740 C 300.469 179.939, 305.419 179.937, 308.287 179.736 C 311.154 179.535, 308.550 179.372, 302.500 179.374 C 296.450 179.376, 294.104 179.541, 297.287 179.740 M 342 209.965 C 342 210.495, 343.012 211.420, 344.250 212.020 C 346.269 212.998, 346.322 212.966, 344.766 211.706 C 343.812 210.934, 343.324 210.009, 343.682 209.651 C 344.040 209.293, 343.808 209, 343.167 209 C 342.525 209, 342 209.434, 342 209.965" stroke="none" fill="#1e771b" fill-rule="evenodd"/></svg>